<svg width="38" height="38" viewBox="0 0 38 38" fill="none" xmlns="http://www.w3.org/2000/svg">
<path d="M37.6833 4.75C37.6833 4.12011 37.4331 3.51602 36.9877 3.07062C36.5423 2.62522 35.9382 2.375 35.3083 2.375H13.1416C12.5117 2.375 11.9076 2.62522 11.4622 3.07062C11.0168 3.51602 10.7666 4.12011 10.7666 4.75V17.4167C10.7666 18.0466 11.0168 18.6506 11.4622 19.096C11.9076 19.5414 12.5117 19.7917 13.1416 19.7917H35.3083C35.9382 19.7917 36.5423 19.5414 36.9877 19.096C37.4331 18.6506 37.6833 18.0466 37.6833 17.4167V4.75ZM34.5166 16.2292C34.5166 16.3341 34.4749 16.4348 34.4007 16.5091C34.3264 16.5833 34.2258 16.625 34.1208 16.625H14.3291C14.2241 16.625 14.1234 16.5833 14.0492 16.5091C13.975 16.4348 13.9333 16.3341 13.9333 16.2292V5.985C13.9333 5.88002 13.975 5.77934 14.0492 5.7051C14.1234 5.63087 14.2241 5.58917 14.3291 5.58917H34.1208C34.2258 5.58917 34.3264 5.63087 34.4007 5.7051C34.4749 5.77934 34.5166 5.88002 34.5166 5.985V16.2292Z" fill="white"/>
<path d="M21.0581 11.1308C21.0581 11.9707 21.3918 12.7761 21.9856 13.37C22.5795 13.9639 23.385 14.2975 24.2248 14.2975C25.0647 14.2975 25.8701 13.9639 26.464 13.37C27.0578 12.7761 27.3915 11.9707 27.3915 11.1308C27.3915 10.291 27.0578 9.48553 26.464 8.89167C25.8701 8.2978 25.0647 7.96417 24.2248 7.96417C23.385 7.96417 22.5795 8.2978 21.9856 8.89167C21.3918 9.48553 21.0581 10.291 21.0581 11.1308ZM31.9831 26.1725L26.394 28.025C26.3399 28.041 26.2904 28.0694 26.2491 28.1079C26.2079 28.1463 26.1762 28.1939 26.1565 28.2467C25.9021 28.7963 25.4954 29.2615 24.9846 29.5871C24.4739 29.9126 23.8805 30.0848 23.2748 30.0833H16.9415C16.7315 30.0833 16.5302 29.9999 16.3817 29.8515C16.2332 29.703 16.1498 29.5016 16.1498 29.2917C16.1498 29.0817 16.2332 28.8803 16.3817 28.7319C16.5302 28.5834 16.7315 28.5 16.9415 28.5H23.2748C23.6947 28.5 24.0975 28.3332 24.3944 28.0363C24.6913 27.7393 24.8581 27.3366 24.8581 26.9167C24.8581 26.4967 24.6913 26.094 24.3944 25.7971C24.0975 25.5001 23.6947 25.3333 23.2748 25.3333H17.7331C15.9134 23.9148 13.7036 23.0861 11.3998 22.9583H8.13815C7.14437 22.996 6.17344 23.2673 5.30398 23.75L0.553979 26.1408C0.491511 26.175 0.43942 26.2254 0.403194 26.2867C0.366969 26.348 0.347952 26.418 0.348146 26.4892V35.0392C0.349563 35.11 0.369255 35.1793 0.405316 35.2404C0.441376 35.3014 0.492584 35.3521 0.553979 35.3875C0.614154 35.4222 0.682413 35.4405 0.751896 35.4405C0.821379 35.4405 0.889638 35.4222 0.949813 35.3875L6.04815 32.2208C6.24678 32.0965 6.47053 32.0178 6.70327 31.9904C6.936 31.963 7.17191 31.9877 7.39398 32.0625C23.2273 37.3825 17.8915 37.3983 35.6881 28.405C35.8338 28.3478 35.9602 28.2503 36.0525 28.1238C36.1447 27.9974 36.199 27.8472 36.209 27.691C36.2189 27.5348 36.1842 27.379 36.1088 27.2419C36.0333 27.1047 35.9204 26.9919 35.7831 26.9167C35.268 26.4748 34.6472 26.174 33.9813 26.0436C33.3153 25.9132 32.6269 25.9576 31.9831 26.1725Z" fill="white"/>
</svg>
