<svg width="35" height="35" viewBox="0 0 35 35" fill="none" xmlns="http://www.w3.org/2000/svg">
<path d="M31.7188 9.81488C31.7188 9.52321 31.6021 9.24613 31.3979 9.04196L25.9729 3.61696C25.55 3.19405 24.85 3.19405 24.4271 3.61696C24.0042 4.03988 24.0042 4.73988 24.4271 5.16279L28 8.73571H4.375C3.77708 8.73571 3.28125 9.23154 3.28125 9.82946C3.28125 10.4274 3.77708 10.9086 4.375 10.9086H27.9854L24.4271 14.467C24.0042 14.8899 24.0042 15.5899 24.4271 16.0128C24.6458 16.2315 24.9229 16.3336 25.2 16.3336C25.4771 16.3336 25.7542 16.2315 25.9729 16.0128L31.3833 10.6024C31.4854 10.5003 31.5729 10.369 31.6313 10.2232C31.6313 10.2086 31.6313 10.194 31.6458 10.1795C31.6896 10.0628 31.7188 9.94613 31.7188 9.81488Z" fill="white"/>
<path d="M30.625 24.0919H7.01458L10.5729 20.5336C10.9958 20.1107 10.9958 19.4107 10.5729 18.9878C10.15 18.5649 9.45 18.5649 9.02708 18.9878L3.61667 24.3982C3.51458 24.5003 3.42708 24.6315 3.36875 24.7774C3.36875 24.7919 3.36875 24.8065 3.35417 24.8211C3.31042 24.9378 3.28125 25.069 3.28125 25.2003C3.28125 25.4919 3.39792 25.769 3.60208 25.9732L9.02708 31.3982C9.24583 31.6169 9.52292 31.719 9.8 31.719C10.0771 31.719 10.3542 31.6169 10.5729 31.3982C10.9958 30.9753 10.9958 30.2753 10.5729 29.8524L7 26.2794H30.625C31.2229 26.2794 31.7188 25.7836 31.7188 25.1857C31.7188 24.5878 31.2229 24.0919 30.625 24.0919Z" fill="white"/>
</svg>
