<svg width="34" height="34" viewBox="0 0 34 34" fill="none" xmlns="http://www.w3.org/2000/svg">
<path d="M21.59 31.5499H21.4059C15.1159 31.5499 12.0842 29.0707 11.5601 23.5174C11.5034 22.9365 11.9284 22.4124 12.5234 22.3557C13.0901 22.299 13.6284 22.7382 13.6851 23.319C14.0959 27.7674 16.1925 29.4249 21.42 29.4249H21.6042C27.37 29.4249 29.41 27.3849 29.41 21.619V12.3823C29.41 6.61648 27.37 4.57648 21.6042 4.57648H21.42C16.1642 4.57648 14.0676 6.26231 13.6851 10.7956C13.6142 11.3765 13.1184 11.8156 12.5234 11.759C11.9284 11.7165 11.5034 11.1923 11.5459 10.6115C12.0276 4.97314 15.0734 2.45148 21.4059 2.45148H21.59C28.5459 2.45148 31.5209 5.42648 31.5209 12.3823V21.619C31.5209 28.5749 28.5459 31.5499 21.59 31.5499Z" fill="white"/>
<path d="M21.2501 18.0625H5.12842C4.54758 18.0625 4.06592 17.5808 4.06592 17C4.06592 16.4192 4.54758 15.9375 5.12842 15.9375H21.2501C21.8309 15.9375 22.3126 16.4192 22.3126 17C22.3126 17.5808 21.8309 18.0625 21.2501 18.0625Z" fill="white"/>
<path d="M8.28722 22.808C8.01805 22.808 7.74888 22.7088 7.53638 22.4963L2.79055 17.7505C2.37971 17.3397 2.37971 16.6597 2.79055 16.2488L7.53638 11.5031C7.94722 11.0922 8.62722 11.0922 9.03805 11.5031C9.44888 11.9139 9.44888 12.5939 9.03805 13.0047L5.04305 16.9997L9.03805 20.9947C9.44888 21.4055 9.44888 22.0855 9.03805 22.4963C8.83972 22.7088 8.55638 22.808 8.28722 22.808Z" fill="white"/>
</svg>
