<svg width="35" height="35" viewBox="0 0 35 35" fill="none" xmlns="http://www.w3.org/2000/svg">
<g clip-path="url(#clip0_162_208)">
<mask id="mask0_162_208" style="mask-type:luminance" maskUnits="userSpaceOnUse" x="0" y="0" width="35" height="35">
<path d="M35 0H0V35H35V0Z" fill="white"/>
</mask>
<g mask="url(#mask0_162_208)">
<path d="M32.0833 9.20145H17.5C16.9021 9.20145 16.4062 8.70561 16.4062 8.1077C16.4062 7.50978 16.9021 7.01395 17.5 7.01395H32.0833C32.6813 7.01395 33.1771 7.50978 33.1771 8.1077C33.1771 8.7202 32.6813 9.20145 32.0833 9.20145Z" fill="white"/>
<path d="M28.8454 16.4062H20.7517C17.5579 16.4062 16.4204 15.2833 16.4204 12.1042V6.12499C16.4204 2.94582 17.5579 1.82291 20.7517 1.82291H28.8454C32.0392 1.82291 33.1767 2.94582 33.1767 6.12499V12.1187C33.1767 15.2833 32.0392 16.4062 28.8454 16.4062ZM20.7371 4.01041C18.7537 4.01041 18.5933 4.17082 18.5933 6.12499V12.1187C18.5933 14.0729 18.7537 14.2333 20.7371 14.2333H28.8307C30.814 14.2333 30.9744 14.0729 30.9744 12.1187V6.12499C30.9744 4.17082 30.814 4.01041 28.8307 4.01041H20.7371Z" fill="white"/>
<path d="M17.4998 25.9723H2.9165C2.31859 25.9723 1.82275 25.4765 1.82275 24.8786C1.82275 24.2807 2.31859 23.7848 2.9165 23.7848H17.4998C18.0978 23.7848 18.5936 24.2807 18.5936 24.8786C18.5936 25.4911 18.0978 25.9723 17.4998 25.9723Z" fill="white"/>
<path d="M14.2619 33.1771H6.16816C2.97441 33.1771 1.83691 32.0542 1.83691 28.875V22.8958C1.83691 19.7167 2.97441 18.5938 6.16816 18.5938H14.2619C17.4557 18.5938 18.5932 19.7167 18.5932 22.8958V28.8896C18.5932 32.0542 17.4557 33.1771 14.2619 33.1771ZM6.15357 20.7813C4.17023 20.7813 4.00982 20.9417 4.00982 22.8958V28.8896C4.00982 30.8438 4.17023 31.0042 6.15357 31.0042H14.2473C16.2306 31.0042 16.391 30.8438 16.391 28.8896V22.8958C16.391 20.9417 16.2306 20.7813 14.2473 20.7813H6.15357Z" fill="white"/>
<path d="M21.875 33.1774C21.4812 33.1774 21.1166 32.9586 20.927 32.6232C20.7375 32.2732 20.7375 31.8649 20.9416 31.5149L22.4729 28.9628C22.7791 28.4524 23.45 28.2774 23.975 28.5836C24.5 28.8899 24.6604 29.5607 24.3541 30.0857L23.9604 30.7419C27.9854 29.794 31.0041 26.1774 31.0041 21.8607C31.0041 21.2628 31.5 20.7669 32.0979 20.7669C32.6958 20.7669 33.1916 21.2628 33.1916 21.8607C33.177 28.1024 28.102 33.1774 21.875 33.1774Z" fill="white"/>
<path d="M2.9165 14.2187C2.31859 14.2187 1.82275 13.7229 1.82275 13.125C1.82275 6.89791 6.89775 1.82291 13.1248 1.82291C13.5186 1.82291 13.8832 2.04166 14.0727 2.37707C14.2623 2.72707 14.2623 3.13541 14.0582 3.48541L12.5269 6.03749C12.2207 6.54791 11.5498 6.72291 11.0248 6.41666C10.4998 6.11041 10.3394 5.43957 10.6457 4.91457L11.0394 4.25832C7.01443 5.20624 3.99566 8.82291 3.99566 13.1396C4.01024 13.7229 3.51442 14.2187 2.9165 14.2187Z" fill="white"/>
</g>
</g>
<defs>
<clipPath id="clip0_162_208">
<rect width="35" height="35" fill="white"/>
</clipPath>
</defs>
</svg>
