<svg width="35" height="35" viewBox="0 0 35 35" fill="none" xmlns="http://www.w3.org/2000/svg">
<g clip-path="url(#clip0_162_198)">
<mask id="mask0_162_198" style="mask-type:luminance" maskUnits="userSpaceOnUse" x="0" y="0" width="35" height="35">
<path d="M35 0H0V35H35V0Z" fill="white"/>
</mask>
<g mask="url(#mask0_162_198)">
<path d="M5.73047 23.1579L23.1576 5.73079" stroke="white" stroke-width="1.5" stroke-miterlimit="10" stroke-linecap="round" stroke-linejoin="round"/>
<path d="M16.1895 26.657L17.9395 24.907" stroke="white" stroke-width="1.5" stroke-miterlimit="10" stroke-linecap="round" stroke-linejoin="round"/>
<path d="M20.1147 22.7342L23.6002 19.2488" stroke="white" stroke-width="1.5" stroke-miterlimit="10" stroke-linecap="round" stroke-linejoin="round"/>
<path d="M5.25169 14.9326L14.9351 5.24925C18.0267 2.15758 19.5726 2.143 22.6351 5.2055L29.7955 12.3659C32.858 15.4284 32.8434 16.9743 29.7517 20.0659L20.0684 29.7493C16.9767 32.8409 15.4309 32.8555 12.3684 29.793L5.20794 22.6326C2.14544 19.5701 2.14544 18.0388 5.25169 14.9326Z" stroke="white" stroke-width="1.5" stroke-linecap="round" stroke-linejoin="round"/>
<path d="M2.9165 32.0804H32.0832" stroke="white" stroke-width="1.5" stroke-linecap="round" stroke-linejoin="round"/>
</g>
</g>
<defs>
<clipPath id="clip0_162_198">
<rect width="35" height="35" fill="white"/>
</clipPath>
</defs>
</svg>
