<svg width="35" height="36" viewBox="0 0 35 36" fill="none" xmlns="http://www.w3.org/2000/svg">
<path d="M22.5 28.7076V17.0409C22.5 16.6541 22.3464 16.2832 22.0729 16.0097C21.7994 15.7362 21.4284 15.5826 21.0417 15.5826H15.2083C14.8216 15.5826 14.4506 15.7362 14.1771 16.0097C13.9036 16.2832 13.75 16.6541 13.75 17.0409V28.7076" stroke="#D4AA7D" stroke-width="2" stroke-linecap="round" stroke-linejoin="round"/>
<path d="M5 12.6659C4.9999 12.2416 5.09236 11.8224 5.27094 11.4376C5.44952 11.0527 5.70991 10.7114 6.03396 10.4376L16.2423 1.68903C16.7687 1.24411 17.4357 1 18.125 1C18.8143 1 19.4813 1.24411 20.0077 1.68903L30.216 10.4376C30.5401 10.7114 30.8005 11.0527 30.9791 11.4376C31.1576 11.8224 31.2501 12.2416 31.25 12.6659V25.7909C31.25 26.5645 30.9427 27.3063 30.3957 27.8533C29.8487 28.4003 29.1069 28.7076 28.3333 28.7076H7.91667C7.14312 28.7076 6.40125 28.4003 5.85427 27.8533C5.30729 27.3063 5 26.5645 5 25.7909V12.6659Z" stroke="#D4AA7D" stroke-width="2" stroke-linecap="round" stroke-linejoin="round"/>
</svg>
